HIERARCHY
ROOT mixamorig:Hips
{
	OFFSET 0.000000 201.639420 0.000000
	CHANNELS 6 Xposition Yposition Zposition Xrotation Yrotation Zrotation
	JOINT mixamorig:Spine
	{
		OFFSET 0.006200 19.524994 -2.481800
		CHANNELS 3 Xrotation Yrotation Zrotation
		JOINT mixamorig:Spine1
		{
			OFFSET -0.000900 22.835007 -2.825400
			CHANNELS 3 Xrotation Yrotation Zrotation
			JOINT mixamorig:Spine2
			{
				OFFSET -0.020600 26.552490 -3.193300
				CHANNELS 3 Xrotation Yrotation Zrotation
				JOINT mixamorig:Neck
				{
					OFFSET -0.060000 30.701813 1.352200
					CHANNELS 3 Xrotation Yrotation Zrotation
					JOINT mixamorig:Head
					{
						OFFSET -0.087200 22.547607 3.670900
						CHANNELS 3 Xrotation Yrotation Zrotation
						JOINT mixamorig:HeadTop_End
						{
							OFFSET -0.830600 40.355194 7.893500
							CHANNELS 3 Xrotation Yrotation Zrotation
							End Site
							{
								OFFSET 0.000000 30.592346 0.000000
							}
						}
						JOINT mixamorig:RightEye
						{
							OFFSET -6.302100 18.118591 16.197100
							CHANNELS 3 Xrotation Yrotation Zrotation
							End Site
							{
								OFFSET 0.000000 30.592346 0.000000
							}
						}
						JOINT mixamorig:LeftEye
						{
							OFFSET 6.741500 18.382690 16.401899
							CHANNELS 3 Xrotation Yrotation Zrotation
							End Site
							{
								OFFSET 0.000000 30.592346 0.000000
							}
						}
					}
				}
				JOINT mixamorig:LeftShoulder
				{
					OFFSET 11.924900 18.230499 1.425400
					CHANNELS 3 Xrotation Yrotation Zrotation
					JOINT mixamorig:LeftArm
					{
						OFFSET 25.435989 -0.697632 -5.229300
						CHANNELS 3 Xrotation Yrotation Zrotation
						JOINT mixamorig:LeftForeArm
						{
							OFFSET 54.684776 0.000000 0.000000
							CHANNELS 3 Xrotation Yrotation Zrotation
							JOINT mixamorig:LeftHand
							{
								OFFSET 55.098175 0.000000 0.000000
								CHANNELS 3 Xrotation Yrotation Zrotation
								JOINT mixamorig:LeftHandMiddle1
								{
									OFFSET 23.369751 0.000000 0.000000
									CHANNELS 3 Xrotation Yrotation Zrotation
									JOINT mixamorig:LeftHandMiddle2
									{
										OFFSET 6.378677 0.000000 0.000000
										CHANNELS 3 Xrotation Yrotation Zrotation
										JOINT mixamorig:LeftHandMiddle3
										{
											OFFSET 6.148331 0.000000 0.000000
											CHANNELS 3 Xrotation Yrotation Zrotation
											JOINT mixamorig:LeftHandMiddle4
											{
												OFFSET 6.582504 0.000000 0.000000
												CHANNELS 3 Xrotation Yrotation Zrotation
												End Site
												{
													OFFSET -1.168900 6.395691 1.028606
												}
											}
										}
									}
								}
								JOINT mixamorig:LeftHandThumb1
								{
									OFFSET 7.235672 -3.848206 5.434273
									CHANNELS 3 Xrotation Yrotation Zrotation
									JOINT mixamorig:LeftHandThumb2
									{
										OFFSET 6.568451 -3.792297 3.792300
										CHANNELS 3 Xrotation Yrotation Zrotation
										JOINT mixamorig:LeftHandThumb3
										{
											OFFSET 6.063080 -3.500519 3.500518
											CHANNELS 3 Xrotation Yrotation Zrotation
											JOINT mixamorig:LeftHandThumb4
											{
												OFFSET 4.793182 -2.767334 2.767349
												CHANNELS 3 Xrotation Yrotation Zrotation
												End Site
												{
													OFFSET 0.101639 6.054260 1.275483
												}
											}
										}
									}
								}
								JOINT mixamorig:LeftHandIndex1
								{
									OFFSET 23.101074 -0.309540 4.992809
									CHANNELS 3 Xrotation Yrotation Zrotation
									JOINT mixamorig:LeftHandIndex2
									{
										OFFSET 6.226883 0.000000 0.000000
										CHANNELS 3 Xrotation Yrotation Zrotation
										JOINT mixamorig:LeftHandIndex3
										{
											OFFSET 6.094330 0.000000 0.000000
											CHANNELS 3 Xrotation Yrotation Zrotation
											JOINT mixamorig:LeftHandIndex4
											{
												OFFSET 5.482605 0.000000 0.000000
												CHANNELS 3 Xrotation Yrotation Zrotation
												End Site
												{
													OFFSET -1.427902 5.233032 0.797164
												}
											}
										}
									}
								}
								JOINT mixamorig:LeftHandRing1
								{
									OFFSET 22.299240 0.021149 -3.964172
									CHANNELS 3 Xrotation Yrotation Zrotation
									JOINT mixamorig:LeftHandRing2
									{
										OFFSET 6.321869 0.000000 0.000000
										CHANNELS 3 Xrotation Yrotation Zrotation
										JOINT mixamorig:LeftHandRing3
										{
											OFFSET 5.899796 0.000000 0.000000
											CHANNELS 3 Xrotation Yrotation Zrotation
											JOINT mixamorig:LeftHandRing4
											{
												OFFSET 6.517899 0.000000 0.000000
												CHANNELS 3 Xrotation Yrotation Zrotation
												End Site
												{
													OFFSET -1.637299 6.232208 0.980890
												}
											}
										}
									}
								}
								JOINT mixamorig:LeftHandPinky1
								{
									OFFSET 20.463791 -0.302338 -8.562233
									CHANNELS 3 Xrotation Yrotation Zrotation
									JOINT mixamorig:LeftHandPinky2
									{
										OFFSET 6.908646 0.000000 0.000000
										CHANNELS 3 Xrotation Yrotation Zrotation
										JOINT mixamorig:LeftHandPinky3
										{
											OFFSET 4.622849 0.000000 0.000000
											CHANNELS 3 Xrotation Yrotation Zrotation
											JOINT mixamorig:LeftHandPinky4
											{
												OFFSET 5.216080 0.000000 0.000000
												CHANNELS 3 Xrotation Yrotation Zrotation
												End Site
												{
													OFFSET -0.606308 5.116241 0.814926
												}
											}
										}
									}
								}
							}
						}
					}
				}
				JOINT mixamorig:RightShoulder
				{
					OFFSET -12.001300 18.284088 1.348900
					CHANNELS 3 Xrotation Yrotation Zrotation
					JOINT mixamorig:RightArm
					{
						OFFSET -25.308500 -0.751312 -5.164599
						CHANNELS 3 Xrotation Yrotation Zrotation
						JOINT mixamorig:RightForeArm
						{
							OFFSET -54.684429 0.000000 0.000000
							CHANNELS 3 Xrotation Yrotation Zrotation
							JOINT mixamorig:RightHand
							{
								OFFSET -55.150291 0.000000 0.000000
								CHANNELS 3 Xrotation Yrotation Zrotation
								JOINT mixamorig:RightHandMiddle1
								{
									OFFSET -23.317566 0.000000 0.000000
									CHANNELS 3 Xrotation Yrotation Zrotation
									JOINT mixamorig:RightHandMiddle2
									{
										OFFSET -6.378403 0.000000 0.000000
										CHANNELS 3 Xrotation Yrotation Zrotation
										JOINT mixamorig:RightHandMiddle3
										{
											OFFSET -6.148193 0.000000 0.000000
											CHANNELS 3 Xrotation Yrotation Zrotation
											JOINT mixamorig:RightHandMiddle4
											{
												OFFSET -6.583389 0.000000 0.000000
												CHANNELS 3 Xrotation Yrotation Zrotation
												End Site
												{
													OFFSET 1.171692 6.395905 1.029786
												}
											}
										}
									}
								}
								JOINT mixamorig:RightHandThumb1
								{
									OFFSET -7.190521 -3.860474 5.435846
									CHANNELS 3 Xrotation Yrotation Zrotation
									JOINT mixamorig:RightHandThumb2
									{
										OFFSET -6.567429 -3.791718 3.791708
										CHANNELS 3 Xrotation Yrotation Zrotation
										JOINT mixamorig:RightHandThumb3
										{
											OFFSET -6.062469 -3.500153 3.500166
											CHANNELS 3 Xrotation Yrotation Zrotation
											JOINT mixamorig:RightHandThumb4
											{
												OFFSET -4.792618 -2.767029 2.767022
												CHANNELS 3 Xrotation Yrotation Zrotation
												End Site
												{
													OFFSET -0.100327 6.053253 1.276754
												}
											}
										}
									}
								}
								JOINT mixamorig:RightHandIndex1
								{
									OFFSET -23.048981 -0.310791 4.992554
									CHANNELS 3 Xrotation Yrotation Zrotation
									JOINT mixamorig:RightHandIndex2
									{
										OFFSET -6.227539 0.000000 0.000000
										CHANNELS 3 Xrotation Yrotation Zrotation
										JOINT mixamorig:RightHandIndex3
										{
											OFFSET -6.095047 0.000000 0.000000
											CHANNELS 3 Xrotation Yrotation Zrotation
											JOINT mixamorig:RightHandIndex4
											{
												OFFSET -5.484772 0.000000 0.000000
												CHANNELS 3 Xrotation Yrotation Zrotation
												End Site
												{
													OFFSET 1.420593 5.237305 0.797056
												}
											}
										}
									}
								}
								JOINT mixamorig:RightHandRing1
								{
									OFFSET -22.246323 0.020569 -3.963762
									CHANNELS 3 Xrotation Yrotation Zrotation
									JOINT mixamorig:RightHandRing2
									{
										OFFSET -6.322128 0.000000 0.000000
										CHANNELS 3 Xrotation Yrotation Zrotation
										JOINT mixamorig:RightHandRing3
										{
											OFFSET -5.900024 0.000000 0.000000
											CHANNELS 3 Xrotation Yrotation Zrotation
											JOINT mixamorig:RightHandRing4
											{
												OFFSET -6.518356 0.000000 0.000000
												CHANNELS 3 Xrotation Yrotation Zrotation
												End Site
												{
													OFFSET 1.636398 6.232697 0.982186
												}
											}
										}
									}
								}
								JOINT mixamorig:RightHandPinky1
								{
									OFFSET -20.411011 -0.303314 -8.561701
									CHANNELS 3 Xrotation Yrotation Zrotation
									JOINT mixamorig:RightHandPinky2
									{
										OFFSET -6.907349 0.000000 0.000000
										CHANNELS 3 Xrotation Yrotation Zrotation
										JOINT mixamorig:RightHandPinky3
										{
											OFFSET -4.623840 0.000000 0.000000
											CHANNELS 3 Xrotation Yrotation Zrotation
											JOINT mixamorig:RightHandPinky4
											{
												OFFSET -5.218353 0.000000 0.000000
												CHANNELS 3 Xrotation Yrotation Zrotation
												End Site
												{
													OFFSET 0.602097 5.118835 0.816273
												}
											}
										}
									}
								}
							}
						}
					}
				}
			}
		}
	}
	JOINT mixamorig:LeftUpLeg
	{
		OFFSET 18.168400 -13.561905 -0.039000
		CHANNELS 3 Xrotation Yrotation Zrotation
		JOINT mixamorig:LeftLeg
		{
			OFFSET 0.577358 -80.825211 -3.695000
			CHANNELS 3 Xrotation Yrotation Zrotation
			JOINT mixamorig:LeftFoot
			{
				OFFSET -0.577356 -83.370262 -6.520700
				CHANNELS 3 Xrotation Yrotation Zrotation
				JOINT mixamorig:LeftToeBase
				{
					OFFSET 0.750401 -20.798306 25.135401
					CHANNELS 3 Xrotation Yrotation Zrotation
					JOINT mixamorig:LeftToe_End
					{
						OFFSET -0.000500 0.001200 19.917799
						CHANNELS 3 Xrotation Yrotation Zrotation
						End Site
						{
							OFFSET 0.000000 19.917805 0.000000
						}
					}
				}
			}
		}
	}
	JOINT mixamorig:RightUpLeg
	{
		OFFSET -18.162500 -13.585098 -0.041000
		CHANNELS 3 Xrotation Yrotation Zrotation
		JOINT mixamorig:RightLeg
		{
			OFFSET -0.595024 -80.945297 -3.631900
			CHANNELS 3 Xrotation Yrotation Zrotation
			JOINT mixamorig:RightFoot
			{
				OFFSET 0.595024 -83.218193 -6.561200
				CHANNELS 3 Xrotation Yrotation Zrotation
				JOINT mixamorig:RightToeBase
				{
					OFFSET -0.753601 -20.807106 25.115000
					CHANNELS 3 Xrotation Yrotation Zrotation
					JOINT mixamorig:RightToe_End
					{
						OFFSET 0.000299 0.001700 19.918200
						CHANNELS 3 Xrotation Yrotation Zrotation
						End Site
						{
							OFFSET 0.000000 19.918203 0.000000
						}
					}
				}
			}
		}
	}
}
MOTION
Frames: 4
Frame Time: 0.033333
0.189376 195.446045 -1.087228 -4.008174 -41.338525 0.410959 2.880573 -0.169796 -0.335250 5.759148 -0.386651 -0.857869 5.759151 -0.386648 -0.857873 -0.827339 26.122323 -5.143634 -12.180795 13.370540 0.368494 0.000000 -0.000000 -0.000000 0.000000 -0.000000 -0.000000 0.000000 -0.000000 -0.000000 -31.286928 -24.256797 12.865005 -35.209468 15.326234 -61.616154 -0.036241 -47.479336 0.068391 -107.706530 17.979165 7.879165 -4.060009 -5.331217 -49.200038 -0.940015 -2.306618 -36.794523 0.000002 -0.000001 -0.000007 0.000003 0.000001 -0.000001 7.041055 3.732236 3.852578 17.013912 -7.217574 7.725769 -0.000006 -0.000006 -0.000001 0.000004 0.000001 -0.000001 -11.798539 8.414864 -26.200805 0.415899 1.190170 -50.496832 0.000002 -0.000006 -0.000011 -0.000004 -0.000001 -0.000001 -9.035151 -1.289240 -54.015899 -1.664642 -4.195446 -48.871445 0.000006 -0.000007 -0.000010 0.000001 0.000001 0.000000 -13.403215 2.713953 -62.642493 -1.399812 -6.958322 -37.626570 0.000004 0.000002 0.000013 -0.000001 -0.000000 0.000001 19.609147 -0.778277 -4.505492 -67.581040 66.033224 58.578837 -0.902147 96.772722 0.896954 -56.876577 -21.147152 -41.918917 1.684438 -2.857318 64.578892 -4.523773 2.168694 106.096081 -0.000013 0.000007 -0.000000 0.000000 -0.000001 0.000003 28.557651 -2.370921 8.821387 6.388722 -14.926415 -2.189310 0.000007 -0.000025 -0.000009 -0.000005 0.000002 -0.000000 -4.077201 -2.696895 25.475561 0.992058 -1.039183 35.778624 -0.000003 -0.000001 0.000000 0.000002 0.000001 -0.000002 -2.266366 -3.012563 66.586688 -7.022425 6.590686 98.008679 -0.000004 0.000001 0.000000 -0.000000 0.000000 0.000000 -9.520868 -3.585831 71.927056 -8.883066 12.609381 84.273490 -0.000001 0.000001 0.000001 0.000000 0.000002 0.000006 -29.143167 46.940390 22.946427 13.202350 -0.505507 -0.502815 10.484090 0.665283 0.091454 0.003110 -0.027251 0.065130 0.000000 -0.000000 -0.000000 -11.704221 5.140739 -8.141699 30.780862 0.385097 1.153519 -14.225517 -17.568351 5.151873 -0.012221 -0.109915 0.262585 0.000000 -0.000002 -0.000000 
0.007094 195.222992 -0.948595 -3.927008 -41.504980 0.478044 2.949149 -0.168155 -0.389794 5.896166 -0.386107 -0.957889 5.896168 -0.386096 -0.957890 -0.903074 26.126232 -5.116513 -12.466058 13.480895 0.443983 0.000000 0.000000 0.000000 0.000000 0.000000 0.000000 0.000000 0.000000 0.000000 -30.959755 -24.016472 13.003458 -34.330119 14.182388 -61.236765 -0.031714 -48.722806 0.077031 -108.530395 17.251861 8.217248 -4.046864 -5.308820 -48.872380 -0.895961 -2.246742 -35.884110 0.000005 -0.000001 -0.000004 -0.000001 -0.000001 -0.000001 5.995773 2.592023 4.255040 16.367244 -7.021176 7.451880 0.000002 -0.000005 0.000001 -0.000001 0.000000 -0.000001 -11.417850 7.991981 -25.982062 0.386317 1.169555 -48.336112 0.000003 -0.000005 -0.000007 0.000002 0.000000 0.000001 -9.022693 -1.290831 -53.878212 -1.601983 -4.139998 -47.877372 0.000003 -0.000008 -0.000012 -0.000000 -0.000000 0.000002 -13.429864 2.718417 -63.053349 -1.360772 -6.910406 -37.101656 0.000005 0.000003 0.000011 -0.000002 -0.000001 0.000000 19.492863 -0.961906 -4.776178 -69.091441 65.516643 60.915268 -0.890567 96.921969 0.889106 -55.887087 -21.608912 -41.833884 1.711521 -2.874816 64.620304 -4.525601 2.168023 106.143448 -0.000012 0.000007 0.000001 0.000001 -0.000000 -0.000000 28.807139 -2.680275 8.902028 6.388721 -14.926415 -2.189311 0.000007 -0.000024 -0.000011 0.000004 -0.000001 -0.000000 -4.090129 -2.666933 25.422333 0.992915 -1.040132 35.824913 -0.000004 -0.000001 -0.000004 -0.000000 0.000002 0.000001 -2.260174 -3.013387 66.644403 -7.026749 6.590204 98.046266 -0.000005 0.000001 -0.000004 -0.000000 -0.000000 0.000002 -9.518358 -3.589499 71.962798 -8.884013 12.609370 84.277848 0.000001 0.000003 0.000005 -0.000001 0.000001 0.000002 -30.350946 46.833808 23.945791 14.781650 -0.512382 -0.561671 9.703920 0.564914 0.048967 0.100721 0.024969 0.037707 -0.000000 -0.000001 0.000000 -11.953260 5.570087 -8.033537 31.323429 0.376239 1.171849 -14.554452 -17.792885 5.136338 -0.058310 -0.209192 0.303078 -0.000000 0.000002 0.000000 
-0.227527 194.934814 -0.858296 -3.834706 -41.516048 0.524895 3.044090 -0.162126 -0.448068 6.085944 -0.377503 -1.067753 6.085944 -0.377508 -1.067751 -0.545857 25.859685 -5.269347 -12.887560 13.520260 0.544641 0.000000 0.000000 -0.000000 0.000000 0.000000 -0.000000 0.000000 0.000000 -0.000000 -30.088107 -23.980649 12.908742 -32.238500 12.387979 -59.664011 -0.016904 -52.902660 0.097602 -109.632302 15.140774 9.690708 -3.998078 -5.257665 -47.983913 -0.795167 -2.101725 -33.722375 0.000005 -0.000001 -0.000005 -0.000000 0.000001 0.000001 3.329248 -0.369587 5.206677 14.614643 -6.466301 6.733530 0.000000 -0.000005 -0.000002 0.000003 -0.000001 0.000001 -10.356983 7.100636 -25.607306 0.319999 1.116630 -43.231713 0.000004 -0.000006 -0.000007 0.000003 0.000000 -0.000002 -9.004990 -1.286480 -53.666572 -1.449228 -3.996231 -45.397798 0.000005 -0.000008 -0.000014 -0.000001 -0.000001 0.000002 -13.504910 2.699575 -63.983245 -1.274786 -6.798752 -35.894649 0.000003 0.000002 0.000014 -0.000001 -0.000001 0.000000 19.085929 -1.114696 -5.240941 -69.762295 65.158290 62.198161 -0.873190 97.177725 0.876776 -54.573259 -21.257007 -41.528042 1.738132 -2.889168 64.669577 -4.527383 2.167352 106.189675 -0.000012 0.000008 -0.000004 0.000000 -0.000000 -0.000000 29.039915 -2.955881 8.981548 6.388720 -14.926415 -2.189312 0.000007 -0.000024 -0.000010 -0.000001 -0.000001 0.000001 -4.099733 -2.645357 25.388360 0.993964 -1.041255 35.880807 -0.000002 -0.000002 -0.000003 0.000001 0.000001 0.000001 -2.252852 -3.014713 66.701831 -7.030787 6.589704 98.081353 -0.000005 0.000001 0.000001 -0.000001 -0.000000 -0.000003 -9.515153 -3.593745 72.002119 -8.885145 12.609335 84.283141 0.000000 0.000003 0.000001 -0.000001 0.000001 0.000001 -31.953131 46.277820 25.220941 17.160044 -0.511420 -0.650459 8.645747 0.564603 -0.270306 0.116030 0.085610 0.013600 -0.000000 0.000002 -0.000000 -12.271897 5.721785 -7.927402 31.998531 0.359003 1.194405 -14.983388 -17.883515 5.084885 -0.327652 -0.332163 0.335042 -0.000000 0.000003 0.000000 
-0.476082 194.523666 -0.698940 -3.684460 -41.328536 0.620533 3.159986 -0.143753 -0.507503 6.317774 -0.345256 -1.182899 6.317776 -0.345251 -1.182900 -0.082535 25.283994 -5.620974 -13.280516 13.258678 0.912224 0.000000 0.000000 0.000000 0.000000 0.000000 0.000000 0.000000 0.000000 0.000000 -28.718265 -24.032331 12.715849 -29.858964 10.473806 -56.867076 0.013123 -58.898477 0.132698 -110.436461 12.149558 11.924932 -3.931620 -5.192051 -46.792560 -0.682204 -1.923907 -31.144320 0.000003 -0.000000 -0.000006 0.000001 0.000001 0.000001 -0.027120 -3.950849 6.100544 12.040900 -5.590741 5.741398 0.000004 -0.000004 -0.000001 0.000004 -0.000000 -0.000001 -8.888445 5.974852 -25.190043 0.247585 1.046186 -37.148842 0.000003 -0.000006 -0.000008 -0.000003 0.000004 0.000002 -8.986165 -1.279352 -53.438225 -1.274119 -3.814993 -42.421321 0.000004 -0.000008 -0.000013 -0.000000 0.000000 0.000003 -13.612968 2.665077 -65.226319 -1.176149 -6.663831 -34.462136 0.000006 0.000003 0.000011 -0.000002 0.000001 -0.000000 18.431014 -1.386373 -5.992362 -70.442350 64.802335 63.341576 -0.849291 97.494776 0.859215 -52.846362 -20.229328 -41.122612 1.764121 -2.900654 64.724758 -4.529098 2.166707 106.234693 -0.000011 0.000007 -0.000001 0.000001 0.000000 -0.000001 29.255087 -3.197150 9.059073 6.388721 -14.926412 -2.189311 0.000007 -0.000024 -0.000012 0.000004 -0.000000 0.000000 -4.106328 -2.631258 25.371033 0.995135 -1.042553 35.943444 -0.000002 -0.000001 -0.000009 -0.000001 0.000000 -0.000004 -2.244606 -3.016500 66.758037 -7.034540 6.589282 98.114137 -0.000006 0.000001 0.000004 -0.000000 -0.000001 0.000004 -9.511379 -3.598443 72.044193 -8.886436 12.609292 84.289227 -0.000002 0.000002 0.000002 0.000001 0.000000 0.000000 -34.010425 45.279547 26.773360 20.326078 -0.499633 -0.767928 7.618670 0.463917 -1.112371 0.136207 0.137731 -0.004568 -0.000000 -0.000001 -0.000000 -12.741581 5.389928 -7.980291 32.922516 0.339041 1.225429 -15.580681 -17.639838 5.048497 -0.756552 -0.468777 0.358646 0.000000 0.000000 0.000000 
